{
  "accessors": [
    {
      "bufferView": 2,
      "componentType": 5126,
      "count": 9658,
      "max": [
        1.3607385158538818,
        3.3751602172851563,
        3.3751602172851563
      ],
      "min": [
        -1.3634470701217651,
        -3.2569591999053955,
        -3.3751602172851563
      ],
      "type": "VEC3"
    },
    {
      "bufferView": 2,
      "byteOffset": 115896,
      "componentType": 5126,
      "count": 9658,
      "max": [
        1.0,
        1.0,
        1.0
      ],
      "min": [
        -1.0,
        -1.0,
        -1.0
      ],
      "type": "VEC3"
    },
    {
      "bufferView": 1,
      "componentType": 5126,
      "count": 9658,
      "max": [
        0.8750000596046448,
        1.0002288818359375
      ],
      "min": [
        0.12479723244905472,
        0.0
      ],
      "type": "VEC2"
    },
    {
      "bufferView": 0,
      "componentType": 5125,
      "count": 14664,
      "type": "SCALAR"
    },
    {
      "bufferView": 2,
      "byteOffset": 231792,
      "componentType": 5126,
      "count": 13894,
      "max": [
        1.045377254486084,
        1.3111214637756348,
        1.045377254486084
      ],
      "min": [
        -1.045377254486084,
        -0.0031573923770338297,
        -1.045377254486084
      ],
      "type": "VEC3"
    },
    {
      "bufferView": 2,
      "byteOffset": 398520,
      "componentType": 5126,
      "count": 13894,
      "max": [
        0.9999999403953552,
        0.9760754704475403,
        1.0
      ],
      "min": [
        -1.0,
        -1.0,
        -1.0
      ],
      "type": "VEC3"
    },
    {
      "bufferView": 1,
      "byteOffset": 77264,
      "componentType": 5126,
      "count": 13894,
      "max": [
        1.0000001192092896,
        0.566343367099762
      ],
      "min": [
        0.0,
        0.01000000536441803
      ],
      "type": "VEC2"
    },
    {
      "bufferView": 0,
      "byteOffset": 58656,
      "componentType": 5125,
      "count": 40704,
      "type": "SCALAR"
    },
    {
      "bufferView": 2,
      "byteOffset": 565248,
      "componentType": 5126,
      "count": 10276,
      "max": [
        1.10312020778656,
        0.9999332427978516,
        1.10312020778656
      ],
      "min": [
        -1.10312020778656,
        -1.5168373584747314,
        -1.1031203269958496
      ],
      "type": "VEC3"
    },
    {
      "bufferView": 2,
      "byteOffset": 688560,
      "componentType": 5126,
      "count": 10276,
      "max": [
        1.0,
        1.0,
        1.0
      ],
      "min": [
        -1.0,
        -1.0,
        -1.0
      ],
      "type": "VEC3"
    },
    {
      "bufferView": 1,
      "byteOffset": 188416,
      "componentType": 5126,
      "count": 10276,
      "max": [
        1.0000001192092896,
        1.0000001192092896
      ],
      "min": [
        0.0,
        0.010030980221927166
      ],
      "type": "VEC2"
    },
    {
      "bufferView": 0,
      "byteOffset": 221472,
      "componentType": 5125,
      "count": 43623,
      "type": "SCALAR"
    },
    {
      "bufferView": 2,
      "byteOffset": 811872,
      "componentType": 5126,
      "count": 3495,
      "max": [
        0.784186065196991,
        0.9998347759246826,
        0.784186065196991
      ],
      "min": [
        -0.784186065196991,
        0.9643222093582153,
        -0.784186065196991
      ],
      "type": "VEC3"
    },
    {
      "bufferView": 2,
      "byteOffset": 853812,
      "componentType": 5126,
      "count": 3495,
      "max": [
        1.0,
        1.0,
        1.0
      ],
      "min": [
        -1.0,
        -4.1527523535478394e-06,
        -1.0
      ],
      "type": "VEC3"
    },
    {
      "bufferView": 1,
      "byteOffset": 270624,
      "componentType": 5126,
      "count": 3495,
      "max": [
        0.0,
        0.0
      ],
      "min": [
        0.0,
        0.0
      ],
      "type": "VEC2"
    },
    {
      "bufferView": 0,
      "byteOffset": 395964,
      "componentType": 5125,
      "count": 13638,
      "type": "SCALAR"
    },
    {
      "bufferView": 2,
      "byteOffset": 895752,
      "componentType": 5126,
      "count": 12806,
      "max": [
        0.5641860365867615,
        0.0010305995820090175,
        0.784186065196991
      ],
      "min": [
        -1.0041861534118652,
        -0.06210869923233986,
        -0.784186065196991
      ],
      "type": "VEC3"
    },
    {
      "bufferView": 2,
      "byteOffset": 1049424,
      "componentType": 5126,
      "count": 12806,
      "max": [
        0.9996978044509888,
        1.0,
        0.9996978640556335
      ],
      "min": [
        -0.9996978044509888,
        -1.0,
        -0.9996978044509888
      ],
      "type": "VEC3"
    },
    {
      "bufferView": 1,
      "byteOffset": 298584,
      "componentType": 5126,
      "count": 12806,
      "max": [
        0.0,
        0.0
      ],
      "min": [
        0.0,
        0.0
      ],
      "type": "VEC2"
    },
    {
      "bufferView": 0,
      "byteOffset": 450516,
      "componentType": 5125,
      "count": 19536,
      "type": "SCALAR"
    },
    {
      "bufferView": 2,
      "byteOffset": 1203096,
      "componentType": 5126,
      "count": 12453,
      "max": [
        0.5379078984260559,
        0.48450034856796265,
        0.5379078984260559
      ],
      "min": [
        -0.5379078984260559,
        -0.7349089980125427,
        -0.5379078984260559
      ],
      "type": "VEC3"
    },
    {
      "bufferView": 2,
      "byteOffset": 1352532,
      "componentType": 5126,
      "count": 12453,
      "max": [
        1.0,
        1.0,
        1.0
      ],
      "min": [
        -1.0,
        -1.0,
        -1.0
      ],
      "type": "VEC3"
    },
    {
      "bufferView": 1,
      "byteOffset": 401032,
      "componentType": 5126,
      "count": 12453,
      "max": [
        1.0000001192092896,
        1.0000001192092896
      ],
      "min": [
        0.0,
        0.010067867115139961
      ],
      "type": "VEC2"
    },
    {
      "bufferView": 0,
      "byteOffset": 528660,
      "componentType": 5125,
      "count": 63381,
      "type": "SCALAR"
    },
    {
      "bufferView": 2,
      "byteOffset": 1501968,
      "componentType": 5126,
      "count": 9876,
      "max": [
        -0.3032471835613251,
        0.3422586917877197,
        0.1172933429479599
      ],
      "min": [
        -0.5379078984260559,
        0.10767202824354172,
        -0.1172933503985405
      ],
      "type": "VEC3"
    },
    {
      "bufferView": 2,
      "byteOffset": 1620480,
      "componentType": 5126,
      "count": 9876,
      "max": [
        0.011517005041241646,
        0.999697744846344,
        0.999697744846344
      ],
      "min": [
        -1.0,
        -0.999697744846344,
        -0.999697744846344
      ],
      "type": "VEC3"
    },
    {
      "bufferView": 1,
      "byteOffset": 500656,
      "componentType": 5126,
      "count": 9876,
      "max": [
        1.0000001192092896,
        1.0000001192092896
      ],
      "min": [
        0.0,
        0.010003109462559223
      ],
      "type": "VEC2"
    },
    {
      "bufferView": 0,
      "byteOffset": 782184,
      "componentType": 5125,
      "count": 14844,
      "type": "SCALAR"
    },
    {
      "bufferView": 2,
      "byteOffset": 1738992,
      "componentType": 5126,
      "count": 4200,
      "max": [
        0.11954788118600845,
        0.11805291473865509,
        0.11954833567142487
      ],
      "min": [
        -0.11954879760742188,
        -0.1277552843093872,
        -0.11954835057258606
      ],
      "type": "VEC3"
    },
    {
      "bufferView": 2,
      "byteOffset": 1789392,
      "componentType": 5126,
      "count": 4200,
      "max": [
        1.0,
        1.0,
        1.0
      ],
      "min": [
        -1.0,
        -0.9999995231628418,
        -1.0
      ],
      "type": "VEC3"
    },
    {
      "bufferView": 1,
      "byteOffset": 579664,
      "componentType": 5126,
      "count": 4200,
      "max": [
        1.0000001192092896,
        1.0000001192092896
      ],
      "min": [
        0.0,
        0.010003109462559223
      ],
      "type": "VEC2"
    },
    {
      "bufferView": 0,
      "byteOffset": 841560,
      "componentType": 5125,
      "count": 23310,
      "type": "SCALAR"
    },
    {
      "bufferView": 2,
      "byteOffset": 1839792,
      "componentType": 5126,
      "count": 218,
      "max": [
        0.002124225487932563,
        -0.09867218136787415,
        0.0019345588516443968
      ],
      "min": [
        -0.00212514353916049,
        -0.11860617250204086,
        -0.0019345588516443968
      ],
      "type": "VEC3"
    },
    {
      "bufferView": 2,
      "byteOffset": 1842408,
      "componentType": 5126,
      "count": 218,
      "max": [
        0.9942004084587097,
        4.35389191366653e-09,
        0.9960030913352966
      ],
      "min": [
        -0.9942003488540649,
        -1.0,
        -0.9960030913352966
      ],
      "type": "VEC3"
    },
    {
      "bufferView": 1,
      "byteOffset": 613264,
      "componentType": 5126,
      "count": 218,
      "max": [
        1.0,
        1.0
      ],
      "min": [
        0.0,
        0.01000000536441803
      ],
      "type": "VEC2"
    },
    {
      "bufferView": 0,
      "byteOffset": 934800,
      "componentType": 5125,
      "count": 456,
      "type": "SCALAR"
    },
    {
      "bufferView": 2,
      "byteOffset": 1845024,
      "componentType": 5126,
      "count": 18176,
      "max": [
        0.22667290270328522,
        0.17288891971111298,
        0.2266729176044464
      ],
      "min": [
        -0.22667290270328522,
        -5.57431173324585,
        -2.6230573654174805
      ],
      "type": "VEC3"
    },
    {
      "bufferView": 2,
      "byteOffset": 2063136,
      "componentType": 5126,
      "count": 18176,
      "max": [
        0.9987924695014954,
        0.9999265670776367,
        0.998761773109436
      ],
      "min": [
        -0.9987895488739014,
        -0.9930217862129211,
        -0.9987884163856506
      ],
      "type": "VEC3"
    },
    {
      "bufferView": 1,
      "byteOffset": 615008,
      "componentType": 5126,
      "count": 18176,
      "max": [
        1.0000001192092896,
        1.0000001192092896
      ],
      "min": [
        0.0,
        0.010068290866911411
      ],
      "type": "VEC2"
    },
    {
      "bufferView": 0,
      "byteOffset": 936624,
      "componentType": 5125,
      "count": 27264,
      "type": "SCALAR"
    },
    {
      "bufferView": 2,
      "byteOffset": 2281248,
      "componentType": 5126,
      "count": 66,
      "max": [
        -0.11200224608182907,
        0.0,
        0.3023996949195862
      ],
      "min": [
        -0.5015173554420471,
        0.0,
        0.07039158791303635
      ],
      "type": "VEC3"
    },
    {
      "bufferView": 2,
      "byteOffset": 2282040,
      "componentType": 5126,
      "count": 66,
      "max": [
        0.0,
        1.0,
        -0.0
      ],
      "min": [
        0.0,
        1.0,
        -0.0
      ],
      "type": "VEC3"
    },
    {
      "bufferView": 1,
      "byteOffset": 760416,
      "componentType": 5126,
      "count": 66,
      "max": [
        1.0,
        0.0
      ],
      "min": [
        0.0,
        0.0
      ],
      "type": "VEC2"
    },
    {
      "bufferView": 0,
      "byteOffset": 1045680,
      "componentType": 5125,
      "count": 192,
      "type": "SCALAR"
    },
    {
      "bufferView": 2,
      "byteOffset": 2282832,
      "componentType": 5126,
      "count": 417,
      "max": [
        1.5448766946792603,
        0.0,
        0.6769947409629822
      ],
      "min": [
        -1.5193800926208496,
        0.0,
        -0.7259746193885803
      ],
      "type": "VEC3"
    },
    {
      "bufferView": 2,
      "byteOffset": 2287836,
      "componentType": 5126,
      "count": 417,
      "max": [
        0.0,
        1.0,
        -0.0
      ],
      "min": [
        0.0,
        1.0,
        -0.0
      ],
      "type": "VEC3"
    },
    {
      "bufferView": 1,
      "byteOffset": 760944,
      "componentType": 5126,
      "count": 417,
      "max": [
        1.0,
        0.0
      ],
      "min": [
        0.0,
        0.0
      ],
      "type": "VEC2"
    },
    {
      "bufferView": 0,
      "byteOffset": 1046448,
      "componentType": 5125,
      "count": 1209,
      "type": "SCALAR"
    }
  ],
  "asset": {
    "extras": {
      "author": "szsakaria (https://sketchfab.com/szsakaria)",
      "license": "CC-BY-4.0 (http://creativecommons.org/licenses/by/4.0/)",
      "source": "https://sketchfab.com/3d-models/bleu-de-chanel-perfume-34150421c7154997bd0060f3f66c1c4f",
      "title": "BLEU DE CHANEL Perfume."
    },
    "generator": "Sketchfab-15.22.0",
    "version": "2.0"
  },
  "bufferViews": [
    {
      "buffer": 0,
      "byteLength": 1051284,
      "name": "floatBufferViews",
      "target": 34963
    },
    {
      "buffer": 0,
      "byteLength": 764280,
      "byteOffset": 1051284,
      "byteStride": 8,
      "name": "floatBufferViews",
      "target": 34962
    },
    {
      "buffer": 0,
      "byteLength": 2292840,
      "byteOffset": 1815564,
      "byteStride": 12,
      "name": "floatBufferViews",
      "target": 34962
    }
  ],
  "buffers": [
    {
      "byteLength": 4108404,
      "uri": "scene.bin"
    }
  ],
  "extensionsUsed": [
    "KHR_materials_emissive_strength",
    "KHR_materials_specular"
  ],
  "materials": [
    {
      "doubleSided": true,
      "name": "material_0",
      "pbrMetallicRoughness": {
        "metallicFactor": 0.0,
        "roughnessFactor": 0.6
      }
    },
    {
      "alphaMode": "BLEND",
      "doubleSided": true,
      "extensions": {
        "KHR_materials_emissive_strength": {
          "emissiveStrength": 2.5028806739832636
        },
        "KHR_materials_specular": {
          "specularColorFactor": [
            1.0,
            1.0,
            1.0
          ],
          "specularFactor": 0.4580743875025973
        }
      },
      "name": "Material",
      "pbrMetallicRoughness": {
        "baseColorFactor": [
          0.00163079,
          0.00194211,
          0.00559134,
          0.8673504725564644
        ],
        "metallicFactor": 0.0,
        "roughnessFactor": 0.0
      }
    },
    {
      "doubleSided": true,
      "name": "Material.004",
      "pbrMetallicRoughness": {
        "baseColorFactor": [
          0.8,
          0.8,
          0.8,
          1.0
        ],
        "roughnessFactor": 0.45
      }
    },
    {
      "doubleSided": true,
      "name": "Material.002",
      "pbrMetallicRoughness": {
        "baseColorFactor": [
          0.0011582,
          0.00133841,
          0.002,
          1.0
        ],
        "metallicFactor": 0.0,
        "roughnessFactor": 0.0672727
      }
    },
    {
      "doubleSided": true,
      "name": "Material.003",
      "pbrMetallicRoughness": {
        "metallicFactor": 0.0,
        "roughnessFactor": 0.5
      }
    },
    {
      "doubleSided": true,
      "name": "Material.005",
      "pbrMetallicRoughness": {
        "baseColorFactor": [
          0.8,
          0.8,
          0.8,
          1.0
        ],
        "metallicFactor": 0.918182,
        "roughnessFactor": 0.140909
      }
    },
    {
      "doubleSided": true,
      "name": "Material.006",
      "pbrMetallicRoughness": {
        "baseColorFactor": [
          0.746848,
          0.746848,
          0.746848,
          1.0
        ],
        "metallicFactor": 0.0,
        "roughnessFactor": 0.5
      }
    },
    {
      "doubleSided": true,
      "name": "Material.007"
    },
    {
      "doubleSided": true,
      "name": "Material.008",
      "pbrMetallicRoughness": {
        "baseColorFactor": [
          0.650459,
          0.650459,
          0.650459,
          1.0
        ],
        "metallicFactor": 0.0
      }
    }
  ],
  "meshes": [
    {
      "name": "Object_0",
      "primitives": [
        {
          "attributes": {
            "NORMAL": 1,
            "POSITION": 0,
            "TEXCOORD_0": 2
          },
          "indices": 3,
          "material": 1,
          "mode": 4
        }
      ]
    },
    {
      "name": "Object_1",
      "primitives": [
        {
          "attributes": {
            "NORMAL": 5,
            "POSITION": 4,
            "TEXCOORD_0": 6
          },
          "indices": 7,
          "material": 2,
          "mode": 4
        }
      ]
    },
    {
      "name": "Object_2",
      "primitives": [
        {
          "attributes": {
            "NORMAL": 9,
            "POSITION": 8,
            "TEXCOORD_0": 10
          },
          "indices": 11,
          "material": 3,
          "mode": 4
        }
      ]
    },
    {
      "name": "Object_3",
      "primitives": [
        {
          "attributes": {
            "NORMAL": 13,
            "POSITION": 12,
            "TEXCOORD_0": 14
          },
          "indices": 15,
          "material": 0,
          "mode": 4
        }
      ]
    },
    {
      "name": "Object_4",
      "primitives": [
        {
          "attributes": {
            "NORMAL": 17,
            "POSITION": 16,
            "TEXCOORD_0": 18
          },
          "indices": 19,
          "material": 4,
          "mode": 4
        }
      ]
    },
    {
      "name": "Object_5",
      "primitives": [
        {
          "attributes": {
            "NORMAL": 21,
            "POSITION": 20,
            "TEXCOORD_0": 22
          },
          "indices": 23,
          "material": 5,
          "mode": 4
        }
      ]
    },
    {
      "name": "Object_6",
      "primitives": [
        {
          "attributes": {
            "NORMAL": 25,
            "POSITION": 24,
            "TEXCOORD_0": 26
          },
          "indices": 27,
          "material": 0,
          "mode": 4
        }
      ]
    },
    {
      "name": "Object_7",
      "primitives": [
        {
          "attributes": {
            "NORMAL": 29,
            "POSITION": 28,
            "TEXCOORD_0": 30
          },
          "indices": 31,
          "material": 6,
          "mode": 4
        }
      ]
    },
    {
      "name": "Object_8",
      "primitives": [
        {
          "attributes": {
            "NORMAL": 33,
            "POSITION": 32,
            "TEXCOORD_0": 34
          },
          "indices": 35,
          "material": 0,
          "mode": 4
        }
      ]
    },
    {
      "name": "Object_9",
      "primitives": [
        {
          "attributes": {
            "NORMAL": 37,
            "POSITION": 36,
            "TEXCOORD_0": 38
          },
          "indices": 39,
          "material": 7,
          "mode": 4
        }
      ]
    },
    {
      "name": "Object_10",
      "primitives": [
        {
          "attributes": {
            "NORMAL": 41,
            "POSITION": 40,
            "TEXCOORD_0": 42
          },
          "indices": 43,
          "material": 0,
          "mode": 4
        }
      ]
    },
    {
      "name": "Object_11",
      "primitives": [
        {
          "attributes": {
            "NORMAL": 45,
            "POSITION": 44,
            "TEXCOORD_0": 46
          },
          "indices": 47,
          "material": 8,
          "mode": 4
        }
      ]
    }
  ],
  "nodes": [
    {
      "children": [
        1
      ],
      "matrix": [
        1.0,
        0.0,
        0.0,
        0.0,
        0.0,
        6.123234262925839e-17,
        -1.0,
        0.0,
        0.0,
        1.0,
        6.123234262925839e-17,
        0.0,
        0.0,
        0.0,
        0.0,
        1.0
      ],
      "name": "Sketchfab_model"
    },
    {
      "children": [
        2
      ],
      "name": "root"
    },
    {
      "children": [
        3
      ],
      "matrix": [
        1.0,
        0.0,
        0.0,
        0.0,
        0.0,
        2.220446049250313e-16,
        1.0,
        0.0,
        0.0,
        -1.0,
        2.220446049250313e-16,
        0.0,
        0.0,
        0.0,
        0.0,
        1.0
      ],
      "name": "GLTF_SceneRootNode"
    },
    {
      "children": [
        4,
        5,
        20,
        23
      ],
      "name": "Cube_11"
    },
    {
      "mesh": 0,
      "name": "Object_4"
    },
    {
      "children": [
        6,
        7,
        12,
        18
      ],
      "matrix": [
        1.0,
        0.0,
        0.0,
        0.0,
        0.0,
        1.0,
        0.0,
        0.0,
        0.0,
        0.0,
        1.0,
        0.0,
        0.0,
        3.3778347969055176,
        0.0,
        1.0
      ],
      "name": "Cylinder.001_5"
    },
    {
      "mesh": 1,
      "name": "Object_6"
    },
    {
      "children": [
        8,
        9,
        10
      ],
      "matrix": [
        1.0,
        0.0,
        0.0,
        0.0,
        0.0,
        1.0,
        0.0,
        0.0,
        0.0,
        0.0,
        1.0,
        0.0,
        0.0,
        1.6485390663146973,
        0.0,
        1.0
      ],
      "name": "Cylinder_1"
    },
    {
      "mesh": 2,
      "name": "Object_8"
    },
    {
      "mesh": 3,
      "name": "Object_9"
    },
    {
      "children": [
        11
      ],
      "matrix": [
        1.0,
        0.0,
        0.0,
        0.0,
        0.0,
        1.0,
        0.0,
        0.0,
        0.0,
        0.0,
        1.0,
        0.0,
        0.2199999988079071,
        0.9920921325683594,
        0.0,
        1.0
      ],
      "name": "Circle.002_0"
    },
    {
      "mesh": 4,
      "name": "Object_11"
    },
    {
      "children": [
        13,
        14,
        15
      ],
      "matrix": [
        1.0,
        0.0,
        0.0,
        0.0,
        0.0,
        1.0,
        0.0,
        0.0,
        0.0,
        0.0,
        1.0,
        0.0,
        0.0,
        1.5519938468933105,
        0.0,
        1.0
      ],
      "name": "Cylinder.002_3"
    },
    {
      "mesh": 5,
      "name": "Object_13"
    },
    {
      "mesh": 6,
      "name": "Object_14"
    },
    {
      "children": [
        16,
        17
      ],
      "matrix": [
        1.685873969314855e-07,
        -0.9999999999999857,
        -0.0,
        0.0,
        0.9999999999999857,
        1.685873969314855e-07,
        0.0,
        0.0,
        0.0,
        0.0,
        1.0,
        0.0,
        -0.3949059545993805,
        0.22496557235717773,
        0.0,
        1.0
      ],
      "name": "Cylinder.004_2"
    },
    {
      "mesh": 7,
      "name": "Object_16"
    },
    {
      "mesh": 8,
      "name": "Object_17"
    },
    {
      "children": [
        19
      ],
      "matrix": [
        1.0,
        0.0,
        0.0,
        0.0,
        0.0,
        1.0,
        0.0,
        0.0,
        0.0,
        0.0,
        1.0,
        0.0,
        0.0,
        -0.15956950187683105,
        0.0,
        1.0
      ],
      "name": "Cylinder.003_4"
    },
    {
      "mesh": 9,
      "name": "Object_19"
    },
    {
      "children": [
        21
      ],
      "matrix": [
        -2.6822090859468517e-07,
        -2.9802294854164302e-08,
        0.9999999999999636,
        0.0,
        -0.9999999999999423,
        2.0861626381929455e-07,
        -2.6822090237743623e-07,
        0.0,
        -2.0861625582568877e-07,
        -0.9999999999999778,
        -2.980235080940474e-08,
        0.0,
        -1.3676905632019043,
        1.17124605178833,
        0.0,
        1.0
      ],
      "name": "Text_9"
    },
    {
      "children": [
        22
      ],
      "matrix": [
        1.0,
        0.0,
        0.0,
        0.0,
        0.0,
        1.0,
        0.0,
        0.0,
        0.0,
        0.0,
        1.0,
        0.0,
        0.32582587003707886,
        0.0,
        -0.13002273440361023,
        1.0
      ],
      "name": "Text.003_7"
    },
    {
      "mesh": 10,
      "name": "Object_22"
    },
    {
      "children": [
        24
      ],
      "matrix": [
        -2.6822090859468517e-07,
        -2.9802294854164302e-08,
        0.9999999999999636,
        0.0,
        -0.9999999999999423,
        2.0861626381929455e-07,
        -2.6822090237743623e-07,
        0.0,
        -2.0861625582568877e-07,
        -0.9999999999999778,
        -2.980235080940474e-08,
        0.0,
        -1.3676905632019043,
        1.17124605178833,
        0.0,
        1.0
      ],
      "name": "Text.002_10"
    },
    {
      "mesh": 11,
      "name": "Object_24"
    }
  ],
  "scene": 0,
  "scenes": [
    {
      "name": "Sketchfab_Scene",
      "nodes": [
        0
      ]
    }
  ]
}
